<?xml version="1.0" encoding="UTF-8" standalone="no"?>
<!-- Created with Inkscape (http://www.inkscape.org/) -->

<svg
   xmlns:osb="http://www.openswatchbook.org/uri/2009/osb"
   xmlns:dc="http://purl.org/dc/elements/1.1/"
   xmlns:cc="http://creativecommons.org/ns#"
   xmlns:rdf="http://www.w3.org/1999/02/22-rdf-syntax-ns#"
   xmlns:svg="http://www.w3.org/2000/svg"
   xmlns="http://www.w3.org/2000/svg"
   xmlns:xlink="http://www.w3.org/1999/xlink"
   xmlns:sodipodi="http://sodipodi.sourceforge.net/DTD/sodipodi-0.dtd"
   xmlns:inkscape="http://www.inkscape.org/namespaces/inkscape"
   width="167.33047mm"
   height="80.017975mm"
   viewBox="0 0 167.33047 80.017975"
   version="1.1"
   id="svg8"
   inkscape:version="0.92.1 r15371"
   sodipodi:docname="pruebalogo5.svg">
  <defs
     id="defs2">
    <inkscape:path-effect
       effect="skeletal"
       id="path-effect6993"
       is_visible="true"
       pattern="M 0,5 C 0,2.24 2.24,0 5,0 7.76,0 10,2.24 10,5 10,7.76 7.76,10 5,10 2.24,10 0,7.76 0,5 Z"
       copytype="single_stretched"
       prop_scale="1.0682223"
       scale_y_rel="false"
       spacing="0"
       normal_offset="0"
       tang_offset="0"
       prop_units="false"
       vertical_pattern="false"
       fuse_tolerance="0" />
    <inkscape:path-effect
       effect="bspline"
       id="path-effect6991"
       is_visible="true"
       weight="33.333333"
       steps="2"
       helper_size="0"
       apply_no_weight="true"
       apply_with_weight="true"
       only_selected="false" />
    <inkscape:path-effect
       effect="simplify"
       id="path-effect6989"
       is_visible="true"
       steps="1"
       threshold="0.000408163"
       smooth_angles="360"
       helper_size="0"
       simplify_individual_paths="false"
       simplify_just_coalesce="false"
       simplifyindividualpaths="false"
       simplifyJustCoalesce="false" />
    <linearGradient
       id="linearGradient6949"
       osb:paint="solid">
      <stop
         style="stop-color:#1e8fa5;stop-opacity:1;"
         offset="0"
         id="stop6947" />
    </linearGradient>
    <inkscape:path-effect
       effect="skeletal"
       id="path-effect5474"
       is_visible="true"
       pattern="M 0,5 C 0,2.24 2.24,0 5,0 7.76,0 10,2.24 10,5 10,7.76 7.76,10 5,10 2.24,10 0,7.76 0,5 Z"
       copytype="single_stretched"
       prop_scale="0.26458334"
       scale_y_rel="false"
       spacing="0"
       normal_offset="0"
       tang_offset="0"
       prop_units="false"
       vertical_pattern="false"
       fuse_tolerance="0" />
    <inkscape:path-effect
       effect="bspline"
       id="path-effect5472"
       is_visible="true"
       weight="33.333333"
       steps="2"
       helper_size="0"
       apply_no_weight="true"
       apply_with_weight="true"
       only_selected="false" />
    <inkscape:path-effect
       effect="simplify"
       id="path-effect5470"
       is_visible="true"
       steps="1"
       threshold="0.000408163"
       smooth_angles="360"
       helper_size="0"
       simplify_individual_paths="false"
       simplify_just_coalesce="false"
       simplifyindividualpaths="false"
       simplifyJustCoalesce="false" />
    <inkscape:path-effect
       fuse_tolerance="0"
       vertical_pattern="false"
       prop_units="false"
       tang_offset="0"
       normal_offset="0"
       spacing="0"
       scale_y_rel="false"
       prop_scale="0.070004341"
       copytype="single_stretched"
       pattern="m 1.8829049,14.240225 c 0,-2.76 2.2399997,-5.0000003 4.9999997,-5.0000003 2.76,0 4.9999994,2.2400003 4.9999994,5.0000003 0,2.76 -2.2399994,5 -4.9999994,5 -2.76,0 -4.9999997,-2.24 -4.9999997,-5 z"
       is_visible="true"
       id="path-effect4920"
       effect="skeletal" />
    <inkscape:path-effect
       only_selected="false"
       apply_with_weight="true"
       apply_no_weight="true"
       helper_size="0"
       steps="2"
       weight="33.333333"
       is_visible="true"
       id="path-effect4918"
       effect="bspline" />
    <inkscape:path-effect
       fuse_tolerance="0"
       vertical_pattern="false"
       prop_units="false"
       tang_offset="0"
       normal_offset="0"
       spacing="0"
       scale_y_rel="false"
       prop_scale="0.070004341"
       copytype="single_stretched"
       pattern="m -0.00697605,31.249154 c 0,-2.76 2.24000005,-5 4.99999995,-5 2.76,0 5,2.24 5,5 0,2.76 -2.24,5 -5,5 -2.7599999,0 -4.99999995,-2.24 -4.99999995,-5 z"
       is_visible="true"
       id="path-effect4906"
       effect="skeletal" />
    <inkscape:path-effect
       only_selected="false"
       apply_with_weight="true"
       apply_no_weight="true"
       helper_size="0"
       steps="2"
       weight="33.333333"
       is_visible="true"
       id="path-effect4904"
       effect="bspline" />
    <inkscape:path-effect
       effect="skeletal"
       id="path-effect4881"
       is_visible="true"
       pattern="m -7.9444716,-11.367512 c 0,-2.76 2.2399997,-5 4.9999997,-5 2.76000003,0 5,2.24 5,5 0,2.7599997 -2.23999997,4.9999997 -5,4.9999997 -2.76,0 -4.9999997,-2.24 -4.9999997,-4.9999997 z"
       copytype="single_stretched"
       prop_scale="0.26458334"
       scale_y_rel="false"
       spacing="0"
       normal_offset="0"
       tang_offset="0"
       prop_units="false"
       vertical_pattern="false"
       fuse_tolerance="0" />
    <inkscape:path-effect
       effect="bspline"
       id="path-effect4879"
       is_visible="true"
       weight="33.333333"
       steps="2"
       helper_size="0"
       apply_no_weight="true"
       apply_with_weight="true"
       only_selected="false" />
    <inkscape:path-effect
       effect="skeletal"
       id="path-effect4875"
       is_visible="true"
       pattern="M 0,5 C 0,2.24 2.24,0 5,0 7.76,0 10,2.24 10,5 10,7.76 7.76,10 5,10 2.24,10 0,7.76 0,5 Z"
       copytype="single_stretched"
       prop_scale="0.26458334"
       scale_y_rel="false"
       spacing="0"
       normal_offset="0"
       tang_offset="0"
       prop_units="false"
       vertical_pattern="false"
       fuse_tolerance="0" />
    <inkscape:path-effect
       effect="bspline"
       id="path-effect4873"
       is_visible="true"
       weight="33.333333"
       steps="2"
       helper_size="0"
       apply_no_weight="true"
       apply_with_weight="true"
       only_selected="false" />
    <inkscape:path-effect
       effect="skeletal"
       id="path-effect4869"
       is_visible="true"
       pattern="M 0,5 C 0,2.24 2.24,0 5,0 7.76,0 10,2.24 10,5 10,7.76 7.76,10 5,10 2.24,10 0,7.76 0,5 Z"
       copytype="single_stretched"
       prop_scale="0.26458334"
       scale_y_rel="false"
       spacing="0"
       normal_offset="0"
       tang_offset="0"
       prop_units="false"
       vertical_pattern="false"
       fuse_tolerance="0" />
    <inkscape:path-effect
       effect="bspline"
       id="path-effect4867"
       is_visible="true"
       weight="33.333333"
       steps="2"
       helper_size="0"
       apply_no_weight="true"
       apply_with_weight="true"
       only_selected="false" />
    <inkscape:path-effect
       effect="skeletal"
       id="path-effect4863"
       is_visible="true"
       pattern="M 0,5 C 0,2.24 2.24,0 5,0 7.76,0 10,2.24 10,5 10,7.76 7.76,10 5,10 2.24,10 0,7.76 0,5 Z"
       copytype="single_stretched"
       prop_scale="0.26458334"
       scale_y_rel="false"
       spacing="0"
       normal_offset="0"
       tang_offset="0"
       prop_units="false"
       vertical_pattern="false"
       fuse_tolerance="0" />
    <inkscape:path-effect
       effect="bspline"
       id="path-effect4861"
       is_visible="true"
       weight="33.333333"
       steps="2"
       helper_size="0"
       apply_no_weight="true"
       apply_with_weight="true"
       only_selected="false" />
    <inkscape:path-effect
       effect="skeletal"
       id="path-effect4857"
       is_visible="true"
       pattern="M 0,5 C 0,2.24 2.24,0 5,0 7.76,0 10,2.24 10,5 10,7.76 7.76,10 5,10 2.24,10 0,7.76 0,5 Z"
       copytype="single_stretched"
       prop_scale="0.26458334"
       scale_y_rel="false"
       spacing="0"
       normal_offset="0"
       tang_offset="0"
       prop_units="false"
       vertical_pattern="false"
       fuse_tolerance="0" />
    <inkscape:path-effect
       effect="bspline"
       id="path-effect4855"
       is_visible="true"
       weight="33.333333"
       steps="2"
       helper_size="0"
       apply_no_weight="true"
       apply_with_weight="true"
       only_selected="false" />
    <inkscape:path-effect
       effect="skeletal"
       id="path-effect4851"
       is_visible="true"
       pattern="M 0,5 C 0,2.24 2.24,0 5,0 7.76,0 10,2.24 10,5 10,7.76 7.76,10 5,10 2.24,10 0,7.76 0,5 Z"
       copytype="single_stretched"
       prop_scale="0.26458334"
       scale_y_rel="false"
       spacing="0"
       normal_offset="0"
       tang_offset="0"
       prop_units="false"
       vertical_pattern="false"
       fuse_tolerance="0" />
    <inkscape:path-effect
       effect="bspline"
       id="path-effect4849"
       is_visible="true"
       weight="33.333333"
       steps="2"
       helper_size="0"
       apply_no_weight="true"
       apply_with_weight="true"
       only_selected="false" />
    <inkscape:path-effect
       effect="skeletal"
       id="path-effect4845"
       is_visible="true"
       pattern="M 0,5 C 0,2.24 2.24,0 5,0 7.76,0 10,2.24 10,5 10,7.76 7.76,10 5,10 2.24,10 0,7.76 0,5 Z"
       copytype="single_stretched"
       prop_scale="0.26458334"
       scale_y_rel="false"
       spacing="0"
       normal_offset="0"
       tang_offset="0"
       prop_units="false"
       vertical_pattern="false"
       fuse_tolerance="0" />
    <inkscape:path-effect
       effect="bspline"
       id="path-effect4843"
       is_visible="true"
       weight="33.333333"
       steps="2"
       helper_size="0"
       apply_no_weight="true"
       apply_with_weight="true"
       only_selected="false" />
    <inkscape:path-effect
       effect="skeletal"
       id="path-effect4839"
       is_visible="true"
       pattern="M 0,5 C 0,2.24 2.24,0 5,0 7.76,0 10,2.24 10,5 10,7.76 7.76,10 5,10 2.24,10 0,7.76 0,5 Z"
       copytype="single_stretched"
       prop_scale="0.26458334"
       scale_y_rel="false"
       spacing="0"
       normal_offset="0"
       tang_offset="0"
       prop_units="false"
       vertical_pattern="false"
       fuse_tolerance="0" />
    <inkscape:path-effect
       effect="bspline"
       id="path-effect4837"
       is_visible="true"
       weight="33.333333"
       steps="2"
       helper_size="0"
       apply_no_weight="true"
       apply_with_weight="true"
       only_selected="false" />
    <inkscape:path-effect
       effect="skeletal"
       id="path-effect4833"
       is_visible="true"
       pattern="M 0,5 C 0,2.24 2.24,0 5,0 7.76,0 10,2.24 10,5 10,7.76 7.76,10 5,10 2.24,10 0,7.76 0,5 Z"
       copytype="single_stretched"
       prop_scale="0.26458334"
       scale_y_rel="false"
       spacing="0"
       normal_offset="0"
       tang_offset="0"
       prop_units="false"
       vertical_pattern="false"
       fuse_tolerance="0" />
    <inkscape:path-effect
       effect="spiro"
       id="path-effect4831"
       is_visible="true" />
    <inkscape:path-effect
       effect="skeletal"
       id="path-effect4821"
       is_visible="true"
       pattern="M 0,5 C 0,2.24 2.24,0 5,0 7.76,0 10,2.24 10,5 10,7.76 7.76,10 5,10 2.24,10 0,7.76 0,5 Z"
       copytype="single_stretched"
       prop_scale="0.26458334"
       scale_y_rel="false"
       spacing="0"
       normal_offset="0"
       tang_offset="0"
       prop_units="false"
       vertical_pattern="false"
       fuse_tolerance="0" />
    <inkscape:path-effect
       effect="bspline"
       id="path-effect4819"
       is_visible="true"
       weight="33.333333"
       steps="2"
       helper_size="0"
       apply_no_weight="true"
       apply_with_weight="true"
       only_selected="false" />
    <clipPath
       clipPathUnits="userSpaceOnUse"
       id="clipPath4740">
      <g
         id="use4742"
         inkscape:label="Clip">
        <path
           sodipodi:type="star"
           style="opacity:1;fill:#1f0b11;fill-opacity:1;stroke:#00b642;stroke-width:0.26499999;stroke-miterlimit:4;stroke-dasharray:none;stroke-opacity:0.33777777"
           id="path4744"
           sodipodi:sides="3"
           sodipodi:cx="61.477615"
           sodipodi:cy="136.11464"
           sodipodi:r1="87.577171"
           sodipodi:r2="43.788586"
           sodipodi:arg1="0.72126605"
           sodipodi:arg2="1.7684636"
           inkscape:flatsided="false"
           inkscape:rounded="0"
           inkscape:randomized="0"
           d="M 127.24547,193.945 52.878301,179.05055 -21.48887,164.1561 28.593687,107.19946 78.676245,50.242827 102.96086,122.09391 Z"
           inkscape:transform-center-x="8.5993144"
           inkscape:transform-center-y="-14.020728" />
      </g>
    </clipPath>
    <inkscape:path-effect
       effect="bspline"
       id="path-effect4879-8"
       is_visible="true"
       weight="33.333333"
       steps="2"
       helper_size="0"
       apply_no_weight="true"
       apply_with_weight="true"
       only_selected="false" />
    <inkscape:path-effect
       effect="skeletal"
       id="path-effect4881-9"
       is_visible="true"
       pattern="m -9.4494044,14.449405 c 0,-2.76 2.2399997,-5.0000002 4.9999997,-5.0000002 2.76,0 4.99999994,2.2400002 4.99999994,5.0000002 0,2.76 -2.23999994,5 -4.99999994,5 -2.76,0 -4.9999997,-2.24 -4.9999997,-5 z"
       copytype="single_stretched"
       prop_scale="1"
       scale_y_rel="false"
       spacing="0"
       normal_offset="0"
       tang_offset="0"
       prop_units="false"
       vertical_pattern="false"
       fuse_tolerance="0" />
    <inkscape:path-effect
       effect="bspline"
       id="path-effect4879-4"
       is_visible="true"
       weight="33.333333"
       steps="2"
       helper_size="0"
       apply_no_weight="true"
       apply_with_weight="true"
       only_selected="false" />
    <inkscape:path-effect
       effect="skeletal"
       id="path-effect4881-6"
       is_visible="true"
       pattern="m -9.4494044,14.449405 c 0,-2.76 2.2399997,-5.0000002 4.9999997,-5.0000002 2.76,0 4.99999994,2.2400002 4.99999994,5.0000002 0,2.76 -2.23999994,5 -4.99999994,5 -2.76,0 -4.9999997,-2.24 -4.9999997,-5 z"
       copytype="single_stretched"
       prop_scale="1"
       scale_y_rel="false"
       spacing="0"
       normal_offset="0"
       tang_offset="0"
       prop_units="false"
       vertical_pattern="false"
       fuse_tolerance="0" />
  </defs>
  <sodipodi:namedview
     id="base"
     pagecolor="#ffffff"
     bordercolor="#666666"
     borderopacity="1.0"
     inkscape:pageopacity="0.0"
     inkscape:pageshadow="2"
     inkscape:zoom="0.71315441"
     inkscape:cx="319.0026"
     inkscape:cy="184.97784"
     inkscape:document-units="mm"
     inkscape:current-layer="layer1"
     showgrid="false"
     inkscape:object-paths="true"
     inkscape:snap-nodes="false"
     inkscape:window-width="1366"
     inkscape:window-height="716"
     inkscape:window-x="-8"
     inkscape:window-y="-8"
     inkscape:window-maximized="1"
     showguides="false" />
  <metadata
     id="metadata5">
    <rdf:RDF>
      <cc:Work
         rdf:about="">
        <dc:format>image/svg+xml</dc:format>
        <dc:type
           rdf:resource="http://purl.org/dc/dcmitype/StillImage" />
        <dc:title></dc:title>
      </cc:Work>
    </rdf:RDF>
  </metadata>
  <g
     inkscape:label="Capa 1"
     inkscape:groupmode="layer"
     id="layer1"
     style="display:inline"
     transform="translate(-21.412143,-87.090713)">
    <path
       id="text4809"
       transform="matrix(0.26458333,0,0,0.26458333,21.412143,87.090713)"
       style="font-style:normal;font-variant:normal;font-weight:normal;font-stretch:normal;font-size:22.57777786px;line-height:1.25;font-family:'Microsoft Tai Le';-inkscape-font-specification:'Microsoft Tai Le';letter-spacing:0px;word-spacing:0px;fill:#000000;fill-opacity:1;stroke:none;stroke-width:0.99999994"
       d="m 273.33008,108.57812 v 63.16602 h 6.83203 v -63.16602 z m -141.91797,3.41602 v 59.75 h 7 v -25.41602 h 5.75 c 1.30555,0 2.47222,0.1667 3.5,0.5 1.05555,0.30556 2.02908,0.80559 2.91797,1.5 0.91666,0.69445 1.8049,1.59788 2.66601,2.70899 0.86111,1.08333 1.74935,2.40148 2.66602,3.95703 l 10,16.75 h 8.33398 l -11.20898,-17.95703 c -0.80556,-1.30556 -1.54037,-2.44575 -2.20703,-3.41797 -0.63889,-1 -1.29232,-1.88824 -1.95899,-2.66602 -0.66666,-0.77774 -1.375,-1.44444 -2.125,-2 -0.72222,-0.5833 -1.58398,-1.09657 -2.58398,-1.54101 v -0.16797 c 2.02778,-0.52778 3.84787,-1.26259 5.45898,-2.20703 1.63889,-0.97222 3.02713,-2.13889 4.16602,-3.5 1.16667,-1.36111 2.05686,-2.90278 2.66797,-4.625 0.63889,-1.75 0.95703,-3.66667 0.95703,-5.75 0,-2.66667 -0.45833,-4.98676 -1.375,-6.95899 -0.91667,-1.99997 -2.19314,-3.66666 -3.83203,-5 -1.61111,-1.3333 -3.52778,-2.32009 -5.75,-2.95898 -2.19445,-0.66667 -4.59788,-1 -7.20899,-1 z m 186.83398,0 v 59.75 h 7 v -22.58203 h 7.875 c 6.63889,0 11.90213,-1.80686 15.79102,-5.41797 3.91667,-3.61111 5.875,-8.24935 5.875,-13.91602 0,-5.66663 -1.76324,-10.0549 -5.29102,-13.16601 -3.5,-3.11111 -8.44509,-4.66797 -14.83398,-4.66797 z m -179.83398,6.33398 h 9.58398 c 3.91667,0 6.90343,0.90343 8.95899,2.70899 2.08333,1.77778 3.125,4.26259 3.125,7.45703 0,1.77778 -0.30686,3.38957 -0.91797,4.83398 -0.61111,1.41667 -1.45768,2.62503 -2.54102,3.625 -1.08333,0.97223 -2.375,1.72226 -3.875,2.25 -1.47222,0.52778 -3.08398,0.79102 -4.83398,0.79102 h -9.5 z m 186.83398,0 h 8.20899 c 9.33333,1e-5 14,3.9451 14,11.83399 0,4.02778 -1.27843,7.15278 -3.83399,9.375 -2.52777,2.19444 -6.20768,3.29102 -11.04101,3.29101 h -7.33399 z m -128.25,9.75 c -5.47222,0 -10.30555,1.33337 -14.5,4 v 7 c 4.13889,-3.49997 8.77713,-5.25 13.91602,-5.25 5.86111,0 8.79297,3.62503 8.79297,10.875 l -12.79297,1.79102 c -9.38889,1.30556 -14.08203,5.94575 -14.08203,13.91797 0,3.72222 1.19314,6.70703 3.58203,8.95703 2.41667,2.25 5.75,3.375 10,3.375 5.77778,0 10.15278,-2.5549 13.125,-7.66602 h 0.16797 v 6.66602 h 6.83203 v -27.75 c 0,-10.61111 -5.01324,-15.91601 -15.04102,-15.91602 z m 187,0 c -6.66666,0 -11.95833,2.01324 -15.875,6.04102 -3.91666,4.02778 -5.875,9.6263 -5.875,16.79297 0,6.58333 1.875,11.875 5.625,15.875 3.77778,3.97222 8.81945,5.95703 15.125,5.95703 6.47223,0 11.62565,-2.04167 15.45899,-6.125 3.86111,-4.11111 5.79101,-9.56944 5.79101,-16.375 0,-6.94444 -1.79166,-12.37435 -5.375,-16.29102 -3.55555,-3.91663 -8.51389,-5.875 -14.875,-5.875 z m 51.41602,0 c -5.80556,0 -10.22222,2.58337 -13.25,7.75 h -0.16602 v -6.75 h -6.83398 v 40.4961 c 0.021,-0.0136 0.0238,-0.0157 0.0449,-0.0293 2.5698,-1.38876 4.65421,-2.87718 6.78906,-3.32812 v -18.80469 c 0,-4.02778 0.97157,-7.29297 2.91602,-9.79297 1.94444,-2.52778 4.41797,-3.79102 7.41797,-3.79102 6.47222,0 9.70703,4.1951 9.70703,12.58399 v 25.33203 h 6.83398 v -24.33203 c 0,-3.72222 1.01324,-6.91732 3.04102,-9.58399 2.05555,-2.66663 4.54232,-4 7.45898,-4 3.44445,0 5.88954,1.05491 7.33399,3.16602 1.47222,2.11111 2.20703,5.52778 2.20703,10.25 v 24.5 h 6.83398 v -26.29102 c 0,-11.5833 -4.69509,-17.375 -14.08398,-17.375 -6.27778,0 -10.99935,2.9451 -14.16602,8.83399 -0.80555,-2.63889 -2.29231,-4.76389 -4.45898,-6.375 -2.16667,-1.63889 -4.70833,-2.45899 -7.625,-2.45899 z m 68.75,0 c -5.47222,0 -10.30556,1.33337 -14.5,4 v 7 c 4.13889,-3.49997 8.77908,-5.25 13.91797,-5.25 5.86111,0 8.79101,3.62503 8.79101,10.875 l -12.79101,1.79102 c -9.38889,1.30556 -14.08399,5.94575 -14.08399,13.91797 0,3.72222 1.1951,6.70703 3.58399,8.95703 2.41666,2.25 5.75,3.375 10,3.375 5.77778,0 10.15278,-2.5549 13.125,-7.66602 h 0.16601 v 6.66602 h 6.83399 v -27.75 c 0,-10.61111 -5.01519,-15.91601 -15.04297,-15.91602 z m -280.08203,1 v 25.5 c 0,12.11112 5.08333,18.16602 15.25,18.16602 5.94444,0 10.33268,-2.58333 13.16601,-7.75 h 0.16602 v 6.75 h 6.83398 v -42.66602 h -6.83398 v 24.58399 c 0,3.97222 -1.08333,7.19382 -3.25,9.66601 -2.13889,2.44445 -4.8737,3.66602 -8.20703,3.66602 -6.88889,0 -10.33399,-4.5 -10.33399,-13.5 v -24.41602 z m 159.41601,4.75 c 4.41667,0 7.80491,1.4451 10.16602,4.33399 2.38889,2.88889 3.58398,6.9987 3.58398,12.33203 0,5.27778 -1.19509,9.3479 -3.58398,12.20898 -2.36111,2.86112 -5.74935,4.29102 -10.16602,4.29102 -4.33333,0 -7.79166,-1.45833 -10.375,-4.375 -2.58333,-2.91667 -3.875,-6.90148 -3.875,-11.95703 0,-5.25 1.27843,-9.36176 3.83399,-12.33399 2.55555,-2.99997 6.02712,-4.5 10.41601,-4.5 z m -178.29101,16.33399 v 4.25 c 0,3.63889 -1.11176,6.65216 -3.33399,9.04101 -2.19444,2.36112 -4.98611,3.54102 -8.375,3.54102 -2.47222,0 -4.45898,-0.65148 -5.95898,-1.95703 -1.47222,-1.33333 -2.20703,-3.04167 -2.20703,-5.125 0,-2.86111 0.8049,-4.84787 2.41601,-5.95899 1.61111,-1.13885 3.99935,-1.93055 7.16602,-2.375 z m 307.16601,0 v 4.25 c 0,3.63889 -1.11176,6.65216 -3.33398,9.04101 -2.19445,2.36112 -4.98611,3.54102 -8.375,3.54102 -2.47222,0 -4.45703,-0.65148 -5.95703,-1.95703 -1.47222,-1.33333 -2.20899,-3.04167 -2.20899,-5.125 0,-2.86111 0.80491,-4.84787 2.41602,-5.95899 1.61111,-1.13885 4.0013,-1.93055 7.16797,-2.375 z m -90.375,16.29492 c -2.53842,0.12522 -1.77529,1.69329 0,3.73828 z m -4.3789,2.77344 c -0.51039,0.10137 -0.8544,1.22941 -0.95117,2.51367 h 3.61523 c -0.62239,-0.71456 -1.31192,-1.46685 -2.16602,-2.30664 -0.17913,-0.17614 -0.345,-0.23743 -0.49804,-0.20703 z" />
    <use
       id="use5379"
       inkscape:spray-origin="#text4809"
       xlink:href="#text4809"
       x="0"
       y="0"
       width="100%"
       height="100%"
       transform="translate(1.1060628,-0.64295167)" />
    <path
       id="path6995"
       transform="matrix(0.26458333,0,0,0.26458333,21.412143,87.090713)"
       style="opacity:1;fill:#1eaf9f;fill-opacity:0.60869565;stroke:#2f2a33;stroke-width:1.06204724;stroke-miterlimit:4;stroke-dasharray:none;stroke-opacity:0.1372549"
       d="m 314.09766,-1.8222656 a 314.06729,153.513 0 0 0 -49.1875,1.9863281 c -4.2794,1.8972 -8.5484,3.817075 -12.79493,5.7871094 C 173.18117,42.570001 97.277749,85.410014 23.320312,131.1543 15.764331,136.10347 8.1882198,141.02252 0.6171875,145.94922 a 314.06729,153.513 0 0 0 -0.58789062,5.74219 314.06729,153.513 0 0 0 97.80078112,111.0332 c 2.084525,-2.33514 3.153242,-3.53012 5.957032,-6.67383 7.82448,-8.77308 15.51654,-17.66476 23.49414,-26.29883 10.534,-11.40083 20.36248,-22.20094 32.80078,-31.37695 2.30021,-1.69691 4.94774,-2.85977 7.46289,-4.22461 1.74563,-2.15225 3.21001,-2.31903 6.55664,-4.36133 0.13799,-0.0843 0.0724,-0.33381 0.18946,-0.44531 0.22576,-0.21522 1.07658,-0.89799 1.88671,-1.54297 0.21292,-0.43353 0.47649,-0.9796 0.50586,-1.00195 0.69753,-0.53143 1.50731,-0.85592 2.35352,-1.11524 0.32147,-0.34184 0.65713,-0.66156 1.07812,-0.84961 0.72834,-0.3253 2.65014,-0.77802 3.17579,-0.76171 0.17521,0.005 0.19567,0.0633 -0.0352,0.19531 -1.27667,0.73035 -2.79942,0.98107 -4.21875,1.41601 -0.26198,0.27859 -0.51455,0.5721 -0.79492,0.82227 -0.86586,0.77258 -1.41528,1.38573 -1.74219,1.88867 -0.0691,0.12337 -0.14454,0.26072 -0.20898,0.375 -2.14232,4.7052 22.27081,-3.80186 13.78515,5.25781 -1.29682,1.38457 -4.24177,4.78802 -5.95312,5.41407 -1.25752,1.0392 -2.52415,2.07169 -3.87891,2.95312 -0.0437,0.0285 -0.0939,0.0456 -0.13867,0.0723 0.14255,2.23017 -0.83588,4.14989 -3.58594,4.83789 -0.38515,0.0964 -0.7406,0.16163 -1.10547,0.23633 0.39281,1.5022 -0.65124,1.34024 -2.16601,0.34375 -0.77242,0.0745 -1.47835,0.0789 -2.13867,0.041 -0.70099,0.35481 -1.38835,0.73301 -2.02149,1.19727 -12.04641,8.83321 -21.07442,18.84967 -31.34961,29.9707 -7.97231,8.62859 -15.65893,17.51595 -23.47851,26.2832 -1.33294,1.49447 -1.67212,1.87202 -2.83204,3.17188 a 314.06729,153.513 0 0 0 135.39258,32.89844 c 41.45627,-34.83588 83.72186,-68.74525 126.58985,-101.82227 28.63646,-22.09599 19.57918,-15.7486 41.79687,-30.08008 3.157,-1.7061 5.57929,-3.59095 8.26563,-3.47656 2.08937,0.089 4.33892,1.38791 7.21875,4.92187 1.41105,1.73156 0.50614,8.08082 -1.16407,6.59766 -14.40468,-12.79147 1.98813,-9.99826 -5.3457,-10.99609 -13.75453,-1.87144 15.02344,14.75474 1.16406,13.97461 -0.45596,-0.0257 -0.62386,-0.0326 -0.96289,-0.0488 -0.61501,0.31199 -0.66026,0.32867 -1.58789,0.82031 -21.4557,13.763 -12.427,7.48136 -40.75781,29.33984 -39.08851,30.15855 -77.6528,61.02762 -115.58789,92.63282 a 314.06729,153.513 0 0 0 47.64844,1.89453 314.06729,153.513 0 0 0 108.21875,-9.60547 c 17.0052,-12.80431 34.00242,-25.61939 50.91015,-38.54883 49.89517,-38.15512 57.34918,-44.41212 106.79492,-83.59766 15.67978,-11.93372 31.22661,-24.04159 46.6543,-36.30078 A 314.06729,153.513 0 0 0 564.83594,59.617188 c -7.53154,6.409858 -15.09183,12.783508 -22.74024,19.052734 -19.85869,16.277745 -40.50975,31.569818 -60.38281,47.832028 -10.74285,8.79092 -20.60524,-1.0599 -9.91601,-9.91601 20.1961,-16.732695 41.33008,-32.298041 61.61132,-48.921878 6.35876,-5.212075 12.64841,-10.507179 18.91797,-15.826171 A 314.06729,153.513 0 0 0 353.78906,-0.39648438 C 318.66115,35.689089 282.02107,70.221474 244.73828,104.06641 c -10.27797,9.33021 -20.18925,-0.58059 -9.91601,-9.916019 34.19612,-31.074509 67.88407,-62.692175 100.34179,-95.5761722 a 314.06729,153.513 0 0 0 -21.0664,-0.3964844 z M 173.24805,207.88477 c 0.67472,-0.0651 1.40402,-0.18776 2.16601,-0.34375 -0.0961,-0.36759 -0.27225,-0.82681 -0.55273,-1.40235 -0.79936,0.4133 -1.62875,0.77822 -2.45117,1.1543 0.29582,0.2281 0.5675,0.41392 0.83789,0.5918 z M 220.86523,5.2714844 A 314.06729,153.513 0 0 0 4.6171875,126.60742 C 8.2907664,124.21415 11.969261,121.82827 15.636719,119.42578 82.213901,78.231329 150.37079,39.398572 220.86523,5.2714844 Z M 627.99805,153.99414 c -13.00095,10.26259 -26.08837,20.41529 -39.26758,30.44727 -49.59077,39.29926 -57.00855,45.52982 -107.04492,83.79297 -8.99593,6.87919 -18.02205,13.71937 -27.05664,20.54882 A 314.06729,153.513 0 0 0 627.99805,153.99414 Z m -210.38086,15.23633 c -1.07133,0.21278 -1.44166,4.92016 -0.22852,6.19336 2.0135,2.11314 4.26066,2.9725 6.09766,3.31445 h 0.002 c 0.45442,-1.43329 -0.11642,-4.13217 -5.37305,-9.30078 -0.17913,-0.17614 -0.345,-0.23743 -0.49804,-0.20703 z m -228.69336,23.14062 c -0.0299,-0.002 -0.0811,0.0488 -0.16016,0.16602 -0.75412,1.11824 -1.3189,2.34694 -1.88086,3.57812 0.24268,-0.11702 0.46497,-0.25184 0.64063,-0.42187 0.71093,-0.68814 1.60999,-3.30627 1.40039,-3.32227 z" />
  </g>
  <g
     inkscape:groupmode="layer"
     id="layer2"
     inkscape:label="Capa 2"
     style="display:none">
    <path
       style="fill:#000000;stroke:none;stroke-width:0.26458332px;stroke-linecap:butt;stroke-linejoin:miter;stroke-opacity:1"
       d="m 8.1325288,41.716388 c -0.061505,-0.05681 0.3151857,-0.569415 1.0272952,-1.544741 3e-7,0 6e-7,-10e-7 9e-7,-10e-7 0.5009692,-0.685962 1.5867721,-2.149319 2.6165081,-3.4563 1.21584,-1.543238 2.092741,-2.591201 3.703786,-4.574929 1.914427,-2.35707 3.774332,-4.65369 5.68876,-7.01076 0.705242,-0.871816 1.501185,-1.923875 2.43856,-2.842254 0.702936,-0.686073 1.473366,-1.35492 2.315636,-1.971136 0.623202,-0.453423 1.267311,-0.838647 1.917494,-1.209854 0.267064,-0.155199 0.584852,-0.356039 0.972848,-0.538477 0.309656,-0.140703 0.57176,-0.227721 0.758806,-0.315222 0.146132,-0.06815 0.373059,-0.203919 0.717188,-0.336126 0,0 8e-6,-3e-6 8e-6,-3e-6 0.621374,-0.327992 1.452871,-0.100893 2.062095,0.812917 0,0 1.1e-5,1.7e-5 1.1e-5,1.7e-5 0.283231,0.743326 0.522421,1.480813 0.792889,2.179161 0.318641,0.824935 0.668569,1.651235 1.04563,2.48752 0.175149,0.378255 0.317148,0.713369 0.487747,0.951759 0.147031,0.214401 0.3732,0.496875 0.596747,0.885527 0.261476,0.461705 0.393782,0.836038 0.551951,1.015565 0.215218,0.23074 0.405939,0.433055 0.544964,0.43405 0.340119,0.127428 0.867662,-0.01589 1.542813,-0.123103 1.249428,-0.25918 2.496098,-0.646835 3.784955,-1.093283 1.498041,-0.521474 2.991767,-1.144452 4.439235,-1.893643 1.625218,-0.839013 3.248255,-1.84222 4.980638,-2.817887 1.746741,-0.984697 3.646141,-1.97006 5.329879,-3.017106 1.572548,-0.974655 3.129527,-2.125014 4.826964,-3.222529 1.404093,-0.905867 2.830832,-1.690233 4.264182,-2.487968 1.184969,-0.660267 2.3754,-1.336487 3.563595,-2.0301857 0.525621,-0.3078189 1.03079,-0.6063247 1.487088,-0.9260376 0.65361,-0.455592 1.33674,-0.9144671 2.063451,-1.3417841 1.257105,-0.7457196 2.635185,-1.4778431 4.177158,-1.9637751 1.260521,-0.3827047 2.528242,-0.5376347 3.752783,-0.5953373 0.667289,-0.079246 1.592943,-0.081079 2.640454,0.3424645 1.195889,0.6115195 2.044853,1.4940795 2.694623,2.3240576 1.520075,1.8387499 2.720031,3.9014477 3.696531,6.0505667 0.830487,1.823781 1.538943,3.689533 2.185551,5.583209 0.649469,1.902056 1.231897,3.819092 1.798332,5.689163 1.610606,5.298921 3.069735,10.447281 4.263638,15.638986 0.951364,4.14396 1.591284,8.303666 2.108216,12.292543 0.512911,3.953128 0.965911,7.801694 1.464671,11.520607 0.18468,1.234489 0.16998,2.279379 0.49733,3.058821 -0.69564,-0.613445 -1.05055,-0.835372 -1.2215,-0.601345 0.0386,0.01069 0.16334,-0.114742 0.40993,-0.284761 1.07701,-0.835338 2.08451,-1.798848 3.05919,-2.779125 2.27538,-2.294132 4.4319,-4.609548 6.63163,-6.756151 3.98421,-3.886081 8.15745,-7.681591 11.62226,-10.813939 4.23767,-3.835297 7.08561,-6.248388 10.03541,-9.569009 2.4989,-2.805937 4.65337,-6.049862 5.98565,-8.067956 1.45816,-2.210342 1.95859,-3.056652 2.90903,-4.260225 0.66854,-0.850385 1.17449,-1.10495 1.21646,-1.054592 0.0487,0.05841 -0.33652,0.43111 -0.84794,1.306246 -0.57022,0.975782 -1.3695,2.494922 -2.50379,4.483551 -1.22309,2.14711 -3.19568,5.467245 -5.69404,8.504335 -2.86743,3.477871 -5.774,6.121918 -9.85729,9.999112 -3.35246,3.186296 -7.49463,7.114567 -11.34742,11.002923 -2.11699,2.135949 -4.22595,4.471637 -6.50595,6.834009 -0.98968,1.027692 -2.05679,2.07015 -3.24524,3.020503 -0.19605,0.178843 -0.51807,0.421524 -1.007,0.638329 -0.3961,0.321932 -1.06196,0.101376 -1.846027,-0.73779 C 99.232688,67.216699 99.183839,65.983489 99.051129,64.945157 98.508218,61.20546 98.018489,57.354721 97.477537,53.424873 96.933922,49.480791 96.2819,45.401949 95.33704,41.385973 94.138372,36.281875 92.680201,31.200101 91.072153,25.929621 90.50024,24.061591 89.924619,22.170689 89.296354,20.324739 88.670518,18.485921 87.995883,16.701286 87.211704,14.983679 86.299596,12.990586 85.227417,11.122296 83.894003,9.5130573 83.253385,8.7838087 82.705431,8.1312729 82.091827,7.875039 c -0.182619,-0.16622 -0.69029,-0.083865 -1.377265,-0.095469 -1.112467,0.05907 -2.167384,0.171183 -3.119397,0.4690812 -1.229045,0.3664723 -2.432474,1.0133736 -3.644216,1.7062505 -0.638142,0.3679827 -1.268156,0.7875397 -1.902769,1.2231307 -0.562699,0.385219 -1.127101,0.716561 -1.666251,1.025626 -1.210513,0.696011 -2.420795,1.372182 -3.623512,2.030317 -1.448838,0.793714 -2.833566,1.537645 -4.145068,2.370448 -1.619694,1.026295 -3.205065,2.172382 -4.89699,3.199991 -1.80756,1.094316 -3.742647,2.072147 -5.454195,3.008519 -1.687637,0.924138 -3.353378,1.921379 -5.092092,2.791078 -1.568957,0.783003 -3.170445,1.423699 -4.764104,1.949372 -1.341704,0.444515 -2.688193,0.835193 -4.075017,1.100607 -0.677199,0.161902 -1.535675,0.279587 -2.503361,0.05592 -0.77194,-0.243546 -1.330597,-0.712042 -1.668089,-1.229786 -0.356461,-0.517082 -0.532829,-0.976089 -0.681597,-1.264984 -0.0906,-0.186423 -0.280702,-0.421647 -0.491601,-0.748564 -0.288017,-0.455129 -0.475839,-0.892571 -0.630362,-1.26613 -0.372102,-0.87219 -0.717897,-1.740307 -1.032732,-2.611631 -0.278811,-0.772453 -0.501239,-1.515091 -0.746379,-2.205089 0,0 7e-6,5e-6 7e-6,5e-6 0.375679,0.280542 0.33951,0.401247 0.333768,0.29422 0,0 -3e-6,1e-6 -3e-6,1e-6 -0.111499,0.02848 -0.300259,0.142996 -0.592139,0.267894 -0.313499,0.133111 -0.571937,0.211245 -0.756017,0.292004 -0.240779,0.09962 -0.518394,0.270377 -0.845089,0.445332 -0.641508,0.347056 -1.237681,0.67956 -1.781291,1.056502 -0.780373,0.538557 -1.508129,1.135912 -2.183677,1.756034 -0.840179,0.766078 -1.633903,1.756607 -2.395759,2.631523 -2.261297,2.604262 -4.160418,4.772041 -5.963178,6.791119 -1.507767,1.688818 -2.842179,3.133786 -3.951194,4.359377 -1.418191,1.567019 -2.005651,2.249147 -2.9118868,3.20309 0,0 -1.1e-6,1e-6 -1.1e-6,1e-6 -0.8410568,0.885683 -1.3384783,1.290388 -1.3978413,1.235557 z"
       id="path5468"
       inkscape:connector-curvature="0"
       inkscape:path-effect="#path-effect5470;#path-effect5472;#path-effect5474"
       inkscape:original-d="m 8.1325288,41.716388 c 0.1775388,-0.177538 0.3524318,-0.352433 0.5246793,-0.524679 1.1394509,-1.401792 2.2762559,-2.800935 3.4104149,-4.197435 0.745942,-0.833387 1.489237,-1.664129 2.229887,-2.492227 1.401791,-1.664128 2.800935,-3.325614 4.197434,-4.984451 1.401791,-1.664131 2.800936,-3.325616 4.197434,-4.984454 0.396156,-0.483602 0.789665,-0.964558 1.180529,-1.442868 0.877111,-0.745941 1.751577,-1.489237 2.623396,-2.229887 0.658495,-0.352432 1.314345,-0.702218 1.967548,-1.049359 0.177538,-0.133815 0.352433,-0.264985 0.524679,-0.393509 0.221261,-0.04637 0.439878,-0.09009 0.655849,-0.13117 0.264986,-0.133815 0.527325,-0.264985 0.787019,-0.393509 0.04637,-0.04637 0.09009,-0.09009 0.13117,-0.13117 0.177538,-0.04637 0.35243,-0.09009 0.524679,-0.13117 0.09009,-0.0026 0.177539,-0.0026 0.26234,0 0.264986,0.828097 0.527325,1.658839 0.787019,2.492227 0.221261,0.47831 0.439878,0.959266 0.655849,1.442868 0.177538,0.434587 0.352431,0.871819 0.52468,1.311698 0.09009,0.259694 0.177538,0.522033 0.262339,0.787019 0.264986,0.303417 0.527325,0.60948 0.787019,0.918189 0.177538,0.434586 0.352431,0.871819 0.52468,1.311699 0.22126,0.172246 0.439877,0.347138 0.655849,0.524679 0.133815,0.128524 0.264985,0.259694 0.393509,0.393509 0.177538,-0.0026 0.352431,-0.0026 0.52468,0 0.396155,-0.0026 0.789664,-0.0026 1.180525,0 1.445514,-0.396155 2.888383,-0.789664 4.328605,-1.180528 1.532961,-0.614773 3.063277,-1.226898 4.590944,-1.836378 1.664131,-1.008281 3.325614,-2.013917 4.984454,-3.016906 1.882745,-0.964558 3.762845,-1.92647 5.640302,-2.885736 1.620407,-1.183174 3.238167,-2.363703 4.853284,-3.541585 1.314342,-0.702218 2.62604,-1.401791 3.935092,-2.098717 0.83339,-0.483602 1.664132,-0.964558 2.492227,-1.442868 0.789665,-0.439879 1.576684,-0.877112 2.361057,-1.311699 0.658495,-0.483601 1.314344,-0.9645574 1.967548,-1.4428674 1.489236,-0.7896648 2.975829,-1.5766838 4.459774,-2.3610567 1.226897,-0.090092 2.451148,-0.1775391 3.672755,-0.2623397 0.527325,-0.00265 1.052005,-0.00265 1.574038,0 0.702218,0.5220332 1.401789,1.0467126 2.098717,1.5740377 1.27062,1.8337316 2.538596,3.6701091 3.803923,5.5091321 1.226899,3.582663 2.45115,7.167971 3.672755,10.755925 1.707854,6.031167 3.413062,12.064977 5.115624,18.101435 0.483602,3.320322 0.964557,6.643291 1.442868,9.968907 0.614772,4.850636 1.226897,9.703919 1.836377,14.559849 0.13382,0.478311 0.26499,0.959265 0.39351,1.442868 0.0464,0.04108 0.0901,0.0848 0.13117,0.13117 1.18317,-1.008282 2.3637,-2.013916 3.54159,-3.016906 1.92646,-2.145086 3.85029,-4.287525 5.77147,-6.427322 4.37497,-4.112633 8.7473,-8.22262 13.11698,-12.329961 3.41306,-3.107 6.82348,-6.211351 10.23125,-9.313058 1.88274,-3.019552 3.76284,-6.036459 5.6403,-9.050716 0.83339,-1.401792 1.66413,-2.800936 2.49222,-4.197435 0.26499,-0.221263 0.52733,-0.439879 0.78702,-0.65585" />
  </g>
</svg>
