<?xml version="1.0" encoding="UTF-8" standalone="no"?>
<!-- Created with Inkscape (http://www.inkscape.org/) -->

<svg
   xmlns:dc="http://purl.org/dc/elements/1.1/"
   xmlns:cc="http://creativecommons.org/ns#"
   xmlns:rdf="http://www.w3.org/1999/02/22-rdf-syntax-ns#"
   xmlns:svg="http://www.w3.org/2000/svg"
   xmlns="http://www.w3.org/2000/svg"
   xmlns:xlink="http://www.w3.org/1999/xlink"
   xmlns:sodipodi="http://sodipodi.sourceforge.net/DTD/sodipodi-0.dtd"
   xmlns:inkscape="http://www.inkscape.org/namespaces/inkscape"
   width="114.39286mm"
   height="58.263393mm"
   viewBox="0 0 114.39286 58.263393"
   version="1.1"
   id="svg8"
   inkscape:version="0.92.1 r15371"
   sodipodi:docname="logo.svg">
  <defs
     id="defs2">
    <linearGradient
       inkscape:collect="always"
       id="linearGradient4593">
      <stop
         style="stop-color:#ef1174;stop-opacity:0.84705889"
         offset="0"
         id="stop4589" />
      <stop
         style="stop-color:#0000ff;stop-opacity:0;"
         offset="1"
         id="stop4591" />
    </linearGradient>
    <inkscape:path-effect
       effect="spiro"
       id="path-effect4537"
       is_visible="true" />
    <inkscape:perspective
       sodipodi:type="inkscape:persp3d"
       inkscape:vp_x="168.62582 : 215.01508 : 1"
       inkscape:vp_y="-783.15052 : -700.80366 : 0"
       inkscape:vp_z="38.041072 : 400.36344 : 1"
       inkscape:persp3d-origin="142.0994 : 342.37914 : 1"
       id="perspective4485" />
    <radialGradient
       inkscape:collect="always"
       xlink:href="#linearGradient4593"
       id="radialGradient4595"
       cx="227.27736"
       cy="197.97049"
       fx="227.27736"
       fy="197.97049"
       r="76.015244"
       gradientTransform="matrix(1.5598375,-0.16913903,0.10881604,1.0035507,-178.20095,43.716312)"
       gradientUnits="userSpaceOnUse" />
    <radialGradient
       inkscape:collect="always"
       xlink:href="#linearGradient4593"
       id="radialGradient6185"
       cx="80.130951"
       cy="52.16592"
       fx="80.130951"
       fy="52.16592"
       r="57.19643"
       gradientTransform="matrix(1,0,0,0.50932718,0,25.5964)"
       gradientUnits="userSpaceOnUse" />
    <radialGradient
       inkscape:collect="always"
       xlink:href="#linearGradient4593"
       id="radialGradient6187"
       gradientUnits="userSpaceOnUse"
       gradientTransform="matrix(1,0,0,0.50932718,0,25.5964)"
       cx="80.130951"
       cy="52.16592"
       fx="80.130951"
       fy="52.16592"
       r="57.19643" />
  </defs>
  <sodipodi:namedview
     id="base"
     pagecolor="#ffffff"
     bordercolor="#666666"
     borderopacity="1.0"
     inkscape:pageopacity="0.0"
     inkscape:pageshadow="2"
     inkscape:zoom="0.98994949"
     inkscape:cx="404.71427"
     inkscape:cy="-17.758709"
     inkscape:document-units="mm"
     inkscape:current-layer="layer1"
     showgrid="false"
     inkscape:measure-start="-1111.43,534.286"
     inkscape:measure-end="-294.286,1051.43"
     showguides="false"
     inkscape:window-width="1920"
     inkscape:window-height="1028"
     inkscape:window-x="-8"
     inkscape:window-y="-8"
     inkscape:window-maximized="1" />
  <metadata
     id="metadata5">
    <rdf:RDF>
      <cc:Work
         rdf:about="">
        <dc:format>image/svg+xml</dc:format>
        <dc:type
           rdf:resource="http://purl.org/dc/dcmitype/StillImage" />
        <dc:title></dc:title>
      </cc:Work>
    </rdf:RDF>
  </metadata>
  <g
     inkscape:label="Capa 1"
     inkscape:groupmode="layer"
     id="layer1"
     transform="translate(-21.422618,-20.199404)">
    <path
       sodipodi:type="star"
       style="opacity:0.70999995;fill:#0000ff;stroke-width:0.26458332"
       id="path4523"
       sodipodi:sides="7"
       sodipodi:cx="52.117558"
       sodipodi:cy="53.250191"
       sodipodi:r1="20.925686"
       sodipodi:r2="18.853392"
       sodipodi:arg1="0.49221127"
       sodipodi:arg2="0.94101022"
       inkscape:flatsided="true"
       inkscape:rounded="0"
       inkscape:randomized="0"
       d="M 70.559156,63.139164 55.884195,73.834087 38.37288,69.028916 31.211587,52.342043 39.792916,36.339024 57.654952,33.070458 71.347216,44.997643 Z"
       inkscape:transform-center-x="0.83815642"
       inkscape:transform-center-y="0.20208108" />
    <text
       xml:space="preserve"
       style="font-style:normal;font-weight:normal;font-size:22.39846611px;line-height:1.25;font-family:sans-serif;letter-spacing:0px;word-spacing:0px;fill:#000000;fill-opacity:1;stroke:none;stroke-width:0.55996162"
       x="75.115089"
       y="58.47554"
       id="text4527"
       transform="scale(0.92613735,1.0797535)"><tspan
         sodipodi:role="line"
         id="tspan4525"
         x="75.115089"
         y="58.47554"
         style="stroke-width:0.55996162">RFPA</tspan></text>
    <path
       style="opacity:0.70999995;fill:#00ff00;stroke-width:0.71428573"
       d="m 177.29291,270.20556 c -17.63645,-4.86305 -32.29236,-9.10136 -32.5687,-9.41848 -0.27633,-0.31712 -6.53025,-14.61161 -13.8976,-31.76553 l -13.39518,-31.18894 16.22166,-30.23963 c 8.92191,-16.6318 16.29423,-30.32106 16.38293,-30.42059 0.36728,-0.4121 67.08077,-12.37111 67.91997,-12.17528 0.50293,0.11736 12.35475,10.17047 26.33738,22.34024 l 25.42296,22.12687 -0.0241,5.37313 c -0.0133,2.95523 -0.61652,18.50065 -1.34061,34.54538 -1.01316,22.45044 -1.54251,29.38878 -2.29733,30.112 -3.22053,3.08568 -54.37798,39.63619 -55.42357,39.59853 -0.69934,-0.0252 -15.70136,-4.02466 -33.33781,-8.8877 z"
       id="path4551"
       inkscape:connector-curvature="0"
       transform="scale(0.26458333)" />
    <path
       style="opacity:0.70999995;fill:#00ff00;stroke-width:0.71428573"
       d="m 208.60919,278.51497 c -0.62186,-0.57193 -52.86474,-15.12644 -55.32143,-15.41218 -5.24253,-0.60974 -9.28845,-2.48415 -9.28386,-4.30104 0.001,-0.40377 -5.81178,-14.29302 -12.91732,-30.865 l -12.91917,-30.13088 15.82045,-29.51198 c 8.70124,-16.23158 16.12936,-29.82551 16.50693,-30.20873 0.5606,-0.56899 38.79059,-8.0384 47.79297,-9.33783 1.375,-0.19848 3.14286,-0.56317 3.92857,-0.81044 0.78571,-0.24727 2.07143,-0.55259 2.85714,-0.6785 0.78572,-0.1259 3.35715,-0.65664 5.71429,-1.17942 5.66051,-1.25541 8.27343,-0.60115 11.95383,2.99318 1.67539,1.63621 12.93211,11.5617 25.01493,22.05664 l 21.96877,19.0817 -0.33252,6.07143 c -1.04911,19.15514 -1.95348,39.22831 -2.16658,48.08876 -0.13393,5.56904 -0.46362,11.1369 -0.73262,12.37304 -0.42061,1.93273 -2.95031,4.03364 -18.06145,15 -14.89653,10.81061 -24.42647,17.97276 -30.32293,22.78894 -0.6875,0.56155 -1.25,0.8664 -1.25,0.67745 0,-0.18896 -1.56234,0.61776 -3.47186,1.7927 -3.88429,2.39003 -3.83917,2.37575 -4.77814,1.51216 z"
       id="path4553"
       inkscape:connector-curvature="0"
       transform="scale(0.26458333)" />
    <path
       style="opacity:0.70999995;fill:url(#radialGradient4595);fill-opacity:1;stroke-width:0.71428573"
       d="m 200.07347,276.47286 c -5.10714,-1.40965 -9.38148,-2.79873 -9.49853,-3.08685 -0.11705,-0.28813 -0.89053,-0.34664 -1.71884,-0.13003 -1.09176,0.2855 -1.35245,0.14535 -0.94773,-0.5095 0.41125,-0.66541 0.15848,-0.77643 -0.95973,-0.42152 -0.83842,0.2661 -1.51802,0.17041 -1.51802,-0.21375 0,-0.38255 -0.64286,-0.52744 -1.42858,-0.32197 -0.85377,0.22327 -1.42857,0.0219 -1.42857,-0.50043 0,-0.48345 -0.47879,-0.69029 -1.07143,-0.46287 -0.58928,0.22613 -1.07142,0.0781 -1.07142,-0.32886 0,-0.41495 -0.62752,-0.54083 -1.42858,-0.28659 -0.85567,0.27158 -1.42857,0.12836 -1.42857,-0.35714 0,-0.50142 -0.57895,-0.6268 -1.51802,-0.32875 -1.09001,0.34596 -1.36688,0.23725 -0.98198,-0.38554 0.38491,-0.62278 0.10804,-0.73149 -0.98198,-0.38553 -0.96439,0.30608 -1.51802,0.17336 -1.51802,-0.36392 0,-0.49407 -0.59401,-0.6904 -1.42857,-0.47215 -0.78571,0.20547 -1.42857,0.0606 -1.42857,-0.32198 0,-0.38415 -0.67961,-0.47985 -1.51802,-0.21374 -1.11821,0.35491 -1.37098,0.24389 -0.95974,-0.42153 0.40651,-0.65774 0.13955,-0.79382 -0.98197,-0.50053 -0.84715,0.22153 -1.54027,0.074 -1.54027,-0.32794 0,-0.4019 -0.64286,-0.56261 -1.42857,-0.35714 -0.78572,0.20547 -1.42857,0.0448 -1.42857,-0.35714 0,-0.4019 -0.62745,-0.56665 -1.39433,-0.3661 -0.76687,0.20054 -1.49009,0.10186 -1.60714,-0.2193 -0.11705,-0.32115 -1.33782,-0.73972 -2.71282,-0.93016 -1.375,-0.19044 -2.5,-0.41672 -2.5,-0.50284 0,-0.0861 -0.69026,-0.23083 -1.53392,-0.32155 -0.84366,-0.0907 -2.93295,-0.74405 -4.64286,-1.45184 l -3.10893,-1.2869 -5.65476,-13.13258 c -3.11012,-7.22292 -5.65477,-13.59999 -5.65477,-14.17128 0,-0.57129 -0.28682,-1.0387 -0.63739,-1.0387 -0.35057,0 -0.43874,-0.32143 -0.19594,-0.71429 0.2428,-0.39286 0.0667,-0.71429 -0.39141,-0.71429 -0.45807,0 -0.64784,-0.48214 -0.42171,-1.07142 0.22613,-0.58929 0.0808,-1.07143 -0.32288,-1.07143 -0.40371,0 -0.53537,-0.32143 -0.29257,-0.71429 0.2428,-0.39286 0.0821,-0.71428 -0.35714,-0.71428 -0.43923,0 -0.59995,-0.32143 -0.35715,-0.71429 0.2428,-0.39286 0.0667,-0.71429 -0.39141,-0.71429 -0.45807,0 -0.64784,-0.48214 -0.42171,-1.07142 0.22613,-0.58929 0.0808,-1.07143 -0.32288,-1.07143 -0.40371,0 -0.53537,-0.32143 -0.29257,-0.71429 0.2428,-0.39286 0.0821,-0.71428 -0.35714,-0.71428 -0.43923,0 -0.59994,-0.32143 -0.35714,-0.71429 0.2428,-0.39286 0.0667,-0.71429 -0.39141,-0.71429 -0.45808,0 -0.64785,-0.48214 -0.42172,-1.07142 0.22613,-0.58929 0.0808,-1.07143 -0.32288,-1.07143 -0.40371,0 -0.53536,-0.32143 -0.29257,-0.71429 0.2428,-0.39286 0.0821,-0.71428 -0.35714,-0.71428 -0.43923,0 -0.59994,-0.32143 -0.35714,-0.71429 0.2428,-0.39286 0.0667,-0.71429 -0.39141,-0.71429 -0.45807,0 -0.64785,-0.48214 -0.42172,-1.07142 0.22614,-0.58929 0.0808,-1.07143 -0.32287,-1.07143 -0.40371,0 -0.53537,-0.32143 -0.29257,-0.71429 0.2428,-0.39286 0.0821,-0.71428 -0.35715,-0.71428 -0.43922,0 -0.59994,-0.32143 -0.35714,-0.71429 0.2428,-0.39286 0.0667,-0.71429 -0.39141,-0.71429 -0.45807,0 -0.64784,-0.48214 -0.42171,-1.07142 0.22613,-0.58929 0.0808,-1.07143 -0.32288,-1.07143 -0.40371,0 -0.53537,-0.32143 -0.29257,-0.71429 0.2428,-0.39286 0.0821,-0.71428 -0.35714,-0.71428 -0.43923,0 -0.59994,-0.32143 -0.35715,-0.71429 0.2428,-0.39286 0.0667,-0.71429 -0.3914,-0.71429 -0.45808,0 -0.64785,-0.48214 -0.42172,-1.07142 0.22613,-0.58929 0.0808,-1.07143 -0.32288,-1.07143 -0.40371,0 -0.53537,-0.32143 -0.29257,-0.71429 0.2428,-0.39286 0.0821,-0.71428 -0.35714,-0.71428 -0.43923,0 -0.59994,-0.32143 -0.35714,-0.71429 0.2428,-0.39286 0.0667,-0.71429 -0.39141,-0.71429 -0.45807,0 -0.65582,-0.46137 -0.43943,-1.02527 0.2164,-0.56391 0.01,-1.1823 -0.45929,-1.3742 -0.60934,-0.24933 -0.54692,-0.56518 0.2187,-1.10664 0.58928,-0.41675 0.82382,-0.76265 0.5212,-0.76866 -0.83965,-0.0167 2.25819,-5.72523 3.1069,-5.72523 0.40806,0 0.54327,-0.32142 0.30047,-0.71428 -0.2428,-0.39286 -0.0821,-0.71429 0.35714,-0.71429 0.43923,0 0.59995,-0.32143 0.35715,-0.71428 -0.2428,-0.39286 -0.0475,-0.71429 0.43403,-0.71429 0.48152,0 0.66861,-0.20688 0.41576,-0.45973 -0.54433,-0.54433 3.1735,-7.39563 4.01379,-7.39668 0.31783,-4e-4 0.37922,-0.32216 0.13642,-0.71502 -0.2428,-0.39285 -0.0475,-0.71428 0.43403,-0.71428 0.48152,0 0.67757,-0.19793 0.43566,-0.43983 -0.57863,-0.57863 3.00808,-7.41732 3.89018,-7.41732 0.37487,0 0.48293,-0.32142 0.24013,-0.71428 -0.2428,-0.39286 -0.10106,-0.71429 0.31498,-0.71429 0.41605,0 0.68002,-0.24107 0.58661,-0.53571 -0.31794,-1.00287 1.76149,-5.16209 2.38741,-4.77525 0.34276,0.21184 0.43282,-0.11097 0.20013,-0.71735 -0.24889,-0.64859 0.0469,-1.28284 0.71837,-1.54051 0.62779,-0.24091 0.9636,-0.72576 0.74624,-1.07745 -0.21736,-0.35169 -0.0358,-0.63944 0.4034,-0.63944 0.43923,0 0.59994,-0.32143 0.35714,-0.71429 -0.2428,-0.39285 -0.0821,-0.71428 0.35714,-0.71428 0.43923,0 0.59995,-0.32143 0.35715,-0.71429 -0.2428,-0.39286 -0.0475,-0.71428 0.43403,-0.71428 0.48152,0 0.68799,-0.1875 0.45882,-0.41667 -0.22916,-0.22917 0.21113,-1.04446 0.97844,-1.81177 0.7673,-0.7673 1.20369,-1.7048 0.96975,-2.08333 -0.23394,-0.37853 -0.066,-0.68823 0.37324,-0.68823 0.43923,0 0.59995,-0.32143 0.35715,-0.71429 -0.2428,-0.39286 -0.0821,-0.71429 0.35714,-0.71429 0.43923,0 0.59994,-0.32142 0.35714,-0.71428 -0.2428,-0.39286 -0.0821,-0.71429 0.35714,-0.71429 0.43923,0 0.61691,-0.29397 0.39485,-0.65328 -0.22206,-0.3593 -0.0811,-0.76108 0.31336,-0.89285 0.3944,-0.13177 1.9306,-2.32887 3.41376,-4.88244 l 2.69665,-4.64286 5.34069,-1.12031 c 2.93738,-0.61617 4.88328,-1.27757 4.32421,-1.46978 -0.55906,-0.1922 0.66948,-0.34947 2.73009,-0.34947 2.27012,0 3.96886,-0.35966 4.31063,-0.91265 0.31023,-0.50196 0.77383,-0.85773 1.03022,-0.79061 0.59399,0.15552 5.07744,-0.57282 12.94554,-2.103 1.96429,-0.38201 4.85715,-0.89104 6.42858,-1.13118 4.49723,-0.68724 7.02727,-1.10049 8.57142,-1.40003 0.78572,-0.15242 2.39286,-0.44642 3.57143,-0.65334 2.29887,-0.4036 3.23077,-0.60534 8.21429,-1.77822 5.06707,-1.19254 8.67281,-0.94464 11.8649,0.81574 1.60283,0.88393 13.40396,10.76785 26.22473,21.96428 l 23.3105,20.35715 -0.41485,12.5 c -0.22818,6.875 -0.51758,14.42857 -0.64312,16.78571 -0.12553,2.35714 -0.39516,8.30357 -0.59917,13.21429 -0.65151,15.68244 -1.12111,22.60694 -1.62761,23.99989 -0.61515,1.69173 -5.74767,7.41543 -6.22315,6.93996 -0.19223,-0.19223 -0.8925,0.47918 -1.55615,1.49204 -0.66365,1.01286 -1.45922,1.68545 -1.76794,1.49465 -0.30872,-0.1908 -0.75343,0.15376 -0.98825,0.76569 -0.23482,0.61193 -0.73451,0.92251 -1.11043,0.69017 -0.37593,-0.23233 -1.03718,0.23845 -1.46946,1.04617 -0.43228,0.80772 -1.07514,1.28986 -1.42857,1.07143 -0.35344,-0.21844 -0.9963,0.2637 -1.42857,1.07142 -0.43228,0.80773 -1.09127,1.2799 -1.46441,1.04928 -0.37315,-0.23061 -0.67845,-0.11263 -0.67845,0.2622 0,0.63246 -17.26983,13.68852 -18.10641,13.68852 -0.20727,0 -1.43261,0.96429 -2.72298,2.14286 -1.29037,1.17857 -2.72985,2.14286 -3.19885,2.14286 -0.46899,0 -0.95985,0.25438 -1.09081,0.5653 -0.35787,0.84966 -5.63529,4.71396 -6.63899,4.86126 -0.48135,0.0707 -2.2049,0.96786 -3.8301,1.9938 -1.6252,1.02595 -3.04165,1.84213 -3.14767,1.81375 -0.10602,-0.0284 -4.37133,-1.20495 -9.47848,-2.6146 z"
       id="path4555"
       inkscape:connector-curvature="0"
       transform="scale(0.26458333)" />
    <path
       style="fill:none;fill-rule:evenodd;stroke:#000000;stroke-width:0.26458332px;stroke-linecap:butt;stroke-linejoin:miter;stroke-opacity:1"
       d="m 28.915177,73.61607 98.840773,0.566965"
       id="path4585"
       inkscape:connector-type="polyline"
       inkscape:connector-curvature="12" />
    <path
       style="display:inline;fill:none;fill-rule:evenodd;stroke:#000000;stroke-width:0.26458332px;stroke-linecap:butt;stroke-linejoin:miter;stroke-opacity:1"
       d="m 127.75595,74.183035 0,-50.270833"
       id="path4587"
       inkscape:connector-type="polyline"
       inkscape:connector-curvature="12" />
    <path
       style="opacity:0.70999995;fill:#cd1818;fill-opacity:0.84705888;stroke-width:0.26458332"
       id="path4642"
       d="m 29.030837,46.451498 c 0.41221,-0.868124 0.854358,-1.721887 1.312669,-2.566479 0.452623,-0.881034 0.96765,-1.728057 1.479894,-2.575187 0.609116,-1.019342 1.150065,-2.077797 1.76987,-3.090535 0.394591,-0.658047 0.787918,-1.317281 1.165309,-1.985359 0.334473,-0.659558 0.730446,-1.285753 1.13342,-1.905031 0.316574,-0.432666 0.587766,-0.898102 0.924351,-1.315832 0.879771,-0.94561 2.138346,-1.429498 3.2367,-2.055778 -0.291674,0.127405 0.900243,-0.504555 0.585314,-0.321548 -2.629947,1.528281 -2.976271,1.752579 -2.126686,1.209892 1.256522,-0.79869 2.216957,-1.589402 3.614915,-1.732489 0.464269,-0.0616 0.913251,-0.02373 1.362622,0.100309 0.415219,0.186201 0.854784,0.293129 1.25966,0.500518 0.356598,0.18792 0.746972,0.259175 1.143609,0.295582 0.421849,0.0265 0.844897,0.02246 1.267362,0.02109 0.481655,-1.75e-4 0.963308,-0.0016 1.444966,-7.94e-4 0.615773,0.03275 1.211922,-0.135699 1.812277,-0.24149 0.553051,-0.23231 1.14151,-0.377966 1.689963,-0.618649 0.535728,-0.161237 1.035423,-0.413303 1.562819,-0.597157 0.611013,-0.327718 1.253633,-0.57872 1.900891,-0.823042 0.602025,-0.23419 1.213438,-0.411967 1.853983,-0.496038 0.573911,-0.06202 1.152456,-0.0607 1.729047,-0.06432 0.569447,-0.0292 1.010891,0.144166 1.484379,0.442624 0.534352,0.356325 1.024083,0.769921 1.510051,1.187762 0.377835,0.371599 0.780529,0.711539 1.133803,1.107527 0.351882,0.398735 0.708731,0.791779 1.046173,1.20291 0.362088,0.399198 0.760989,0.763635 1.184891,1.095751 0.311574,0.297325 0.671926,0.534733 0.997022,0.81549 0.337717,0.240565 0.713322,0.420643 1.041103,0.674709 0.301766,0.211915 0.613911,0.403897 0.904939,0.63137 0.357703,0.263268 0.743813,0.489842 1.084643,0.774742 0.28221,0.188087 0.54931,0.395809 0.824506,0.593371 0.264633,0.227303 0.586443,0.353756 0.897106,0.500644 0.327168,0.229844 0.677897,0.419132 1.02103,0.622978 0.3849,0.211418 0.813843,0.316486 1.215366,0.490389 0.395269,0.176329 0.804199,0.311388 1.207749,0.467281 0.06533,0.0177 0.132961,0.02839 0.19598,0.05308 0.148505,0.05817 0.282823,0.148384 0.429937,0.209987 0.223859,0.09374 0.462219,0.150495 0.690941,0.231233 0.231658,0.09914 0.492299,0.09884 0.730631,0.167364 0.23096,0.0664 0.457311,0.183878 0.683506,0.266899 0.476385,0.146888 0.976513,0.165748 1.470893,0.182316 0.564292,0.02196 1.123463,0.112924 1.687388,0.154014 0.537459,-0.0032 1.063254,0.0658 1.59368,0.139568 0.473417,0.07399 0.93957,0.179946 1.417344,0.232717 0.45506,0.03968 0.912154,0.04265 1.368603,0.04428 0.497175,0.0011 0.994351,0.0016 1.491527,0.0029 0.62284,0.0013 1.245674,-5.29e-4 1.868514,2.36e-4 0.755737,0.004 1.511493,0.0035 2.267241,0.0034 0.653055,-0.0021 1.306113,-0.0026 1.959168,-0.0052 0.443963,-0.0021 0.887929,-0.0034 1.331897,-0.004 0.502049,-0.0011 1.004088,0.0037 1.506122,0.0075 0.830485,0.0044 1.660983,0.0053 2.491473,0.0021 0.627536,-0.0013 1.25504,-0.0064 1.882579,-0.0053 0.621323,0.003 1.242643,0.0024 1.863963,-2.65e-4 0.68316,-0.0046 1.36631,0.0057 2.04945,0.01093 1.21427,0.0069 2.42856,0.0051 3.64285,0.0062 0.97837,-0.0011 1.95672,-0.0083 2.93509,-0.0127 0.84043,-0.01492 1.67754,0.0048 2.51563,0.0654 0.72519,0.04489 1.44026,0.180661 2.16244,0.256948 0.23832,0.04846 0.49027,0.0046 0.72867,0.04205 0.27287,0.04282 0.55123,0.144322 0.82068,0.208084 0.55123,0.109913 1.11037,0.14287 1.66364,0.239416 0.53981,0.05084 1.04168,0.255789 1.56894,0.373145 0.34157,0.131347 0.71445,0.152095 1.05735,0.276852 0.0353,0.01283 0.3799,0.171315 0.42722,0.192971 0.38262,0.171077 0.69357,0.440306 1.01743,0.698185 0.36086,0.258024 0.62033,0.619675 0.9329,0.928098 0.3993,0.369284 0.79997,0.736962 1.19345,1.112488 0.3804,0.366937 0.7623,0.727265 1.12696,1.109019 0.15134,0.184219 0.31935,0.351796 0.47483,0.532331 0,0 -2.39819,1.444263 -2.39819,1.444263 v 0 c -0.15057,-0.17689 -0.30938,-0.345811 -0.46,-0.522682 -0.36347,-0.376486 -0.74265,-0.735473 -1.11879,-1.099595 -0.39541,-0.376523 -0.79868,-0.744424 -1.1999,-1.114708 -0.30564,-0.303509 -0.56995,-0.649089 -0.92507,-0.900023 -0.30271,-0.24884 -0.61454,-0.480811 -0.9763,-0.63931 -0.46329,-0.206213 -0.95762,-0.29778 -1.44501,-0.431826 -0.51918,-0.129757 -1.02755,-0.301019 -1.56277,-0.355941 -0.55585,-0.09251 -1.12117,-0.12142 -1.66988,-0.256982 -0.50715,-0.121052 -1.01133,-0.196072 -1.53266,-0.222716 -0.70938,-0.09396 -1.41465,-0.227171 -2.13061,-0.262866 -0.83781,-0.05565 -1.6757,-0.04681 -2.51501,-0.04222 -0.96671,-0.0044 -1.93341,-0.01177 -2.90014,-0.0127 -1.21998,0.0011 -2.43996,-7.94e-4 -3.65993,0.0062 -0.69315,0.0052 -1.38633,0.0154 -2.079502,0.01093 -0.621061,-0.0026 -1.242118,-0.0033 -1.863182,-2.65e-4 -0.622657,0.0011 -1.245283,-0.004 -1.867937,-0.0053 -0.832417,-0.0033 -1.664841,-0.0024 -2.497249,0.0021 -0.508945,0.0038 -1.017894,0.0084 -1.526852,0.0075 -0.440267,-5.3e-4 -0.880534,-0.0019 -1.320798,-0.004 -0.648234,-0.0026 -1.296471,-0.0031 -1.944708,-0.0053 -0.758928,-6.9e-5 -1.517867,-5.29e-4 -2.276787,0.0035 -0.623745,0.0011 -1.24749,-5.29e-4 -1.871229,0.0021 -0.501494,0.0024 -1.003022,0.0062 -1.504511,0.0029 -0.462243,-0.0072 -0.925271,-0.01857 -1.384861,-0.0726 -0.47499,-0.06742 -0.942289,-0.176033 -1.418121,-0.237064 -0.524651,-0.07484 -1.049322,-0.108111 -1.578872,-0.129768 -0.560994,-0.04974 -1.119381,-0.135702 -1.683232,-0.144449 -0.516712,-0.02819 -1.037211,-0.06845 -1.526627,-0.251121 -0.460841,-0.177935 -0.930479,-0.300538 -1.407001,-0.429056 -0.451189,-0.150183 -0.883878,-0.337749 -1.329995,-0.500174 -0.401904,-0.160316 -0.813397,-0.294582 -1.2085,-0.472234 -0.416218,-0.1618 -0.847349,-0.293272 -1.233064,-0.523512 -0.34227,-0.19217 -0.676714,-0.394917 -1.01251,-0.597837 C 68.594869,38.615495 68.274239,38.446739 67.990018,38.21847 67.720328,38.009644 67.43774,37.819136 67.168823,37.609459 66.822481,37.336232 66.443216,37.106465 66.089357,36.84284 65.792161,36.624871 65.473592,36.439424 65.179968,36.216288 64.840323,35.972321 64.467464,35.779315 64.135399,35.524228 63.805268,35.252075 63.457113,35.002673 63.142071,34.712034 62.718626,34.35296 62.307038,33.9784 61.936857,33.5637 c -0.335778,-0.408215 -0.698582,-0.791004 -1.046218,-1.189054 -0.346266,-0.385281 -0.738405,-0.720762 -1.111404,-1.079595 -0.47032,-0.409625 -0.938744,-0.824145 -1.474419,-1.14899 -0.4449,-0.236667 -0.901314,-0.346631 -1.408721,-0.314246 -0.567455,0.0034 -1.137233,0.0087 -1.699565,0.09392 -0.622863,0.112591 -1.220586,0.307967 -1.810631,0.53616 -0.649634,0.249367 -1.276487,0.54442 -1.911048,0.828482 -0.519507,0.206282 -1.03586,0.420147 -1.563608,0.604893 -0.568413,0.200885 -1.133594,0.418266 -1.717051,0.570896 -0.610314,0.116822 -1.222277,0.231426 -1.847559,0.205039 -0.484005,0.0021 -0.968012,0.0034 -1.45202,0.0053 -0.429979,-0.0016 -0.86174,0.0016 -1.289547,-0.04693 -0.416285,-0.06288 -0.818669,-0.174567 -1.193065,-0.372518 -0.396271,-0.177194 -0.812538,-0.30907 -1.221766,-0.452249 -0.433859,-0.08127 -0.866849,-0.08766 -1.304084,-0.01712 -1.117626,0.190151 -2.945201,1.464741 1.244743,-0.954672 -1.085524,0.632825 -2.155899,1.29508 -3.270784,1.875057 4.124356,-2.399456 2.369021,-1.502958 1.536377,-0.784455 -0.371091,0.393822 -0.633881,0.864124 -0.964033,1.290598 -0.400034,0.614526 -0.812972,1.225431 -1.138465,1.883246 -0.360469,0.689059 -0.793105,1.339363 -1.184011,2.011566 -0.637653,1.006271 -1.194136,2.05954 -1.786966,3.092429 -0.498618,0.846621 -1.00693,1.688629 -1.465522,2.557795 -0.456293,0.823675 -0.908225,1.653019 -1.276501,2.520561 0,0 -2.550152,1.171869 -2.550152,1.171869 z"
       inkscape:connector-curvature="0" />
    <a
       id="a4646"
       style="opacity:0.28000004;fill:#600000;fill-opacity:1;stroke:url(#radialGradient6185);stroke-width:1;stroke-miterlimit:4;stroke-dasharray:none;paint-order:stroke fill markers"
       transform="translate(-1.5119048,-2.8348215)">
      <rect
         y="23.534225"
         x="23.434523"
         height="57.263393"
         width="113.39286"
         id="rect4644"
         style="opacity:0.70999995;fill:#600000;fill-opacity:1;stroke:url(#radialGradient6187);stroke-width:1;stroke-miterlimit:4;stroke-dasharray:none;paint-order:stroke fill markers" />
    </a>
  </g>
</svg>
